<svg
  width="50"
  height="50"
  viewBox="0 0 100 100"
  xmlns="http://www.w3.org/2000/svg" 
  stroke="rgba(255,255,255,0.2)" 
  stroke-width="2"
  fill="none">
  <path d="M 0 0 l 8.3333 12.5 h 16.666 h 16.666 l 8.3333 12.5 l -8.3333 12.5 h -16.666 h -16.666 l -8.3333 12.5 l 8.3333 12.5 h 16.666 h 16.666 l 8.3333 12.5 l -8.3333 12.5 h -16.666 h -16.666 l -8.3333 12.5"/>
  <path d="M 100 0 l -8.3333 12.5 h -16.666 h -16.666 l -8.3333 12.5 l 8.3333 12.5 h 16.666 h 16.666 l 8.3333 12.5 l -8.3333 12.5 h -16.666 h -16.666 l -8.3333 12.5 l 8.3333 12.5 h 16.666 h 16.666 l 8.3333 12.5"/>
  
  <path d="M 28.868 0 l -16.666 25 l 16.666 25 l -16.666 25 l 16.666 25" />
  <path d="M 71.132 0 l 16.666 25 l -16.666 25 l 16.666 25 l -16.666 25" />
</svg>